<svg xmlns="http://www.w3.org/2000/svg" xmlns:xlink="http://www.w3.org/1999/xlink" version="1.1" x="0px" y="0px" viewBox="0 0 100 125" enable-background="new 0 0 100 100" xml:space="preserve"><path d="M51.697,31.665c-11.042,0-20,8.958-20,20c0,11.046,8.958,20,19.999,20c11.048,0,20.001-8.956,20.001-20  C71.697,40.623,62.744,31.666,51.697,31.665z M51.7,34.828c1.014,0,1.837,0.822,1.837,1.836s-0.823,1.838-1.837,1.838  c-1.015,0-1.836-0.824-1.836-1.838S50.686,34.828,51.7,34.828z M39.179,47.594c-0.313,0.965-1.352,1.492-2.314,1.179  c-0.965-0.313-1.492-1.349-1.18-2.313c0.313-0.964,1.35-1.493,2.314-1.18C38.963,45.593,39.492,46.631,39.179,47.594z   M44.362,64.878c-0.596,0.821-1.744,1.003-2.564,0.407s-1.003-1.745-0.407-2.565c0.597-0.82,1.747-1.003,2.566-0.407  C44.778,62.909,44.958,64.06,44.362,64.878z M41.7,51.665c0-5.521,4.476-10.001,10-10.001c5.521,0,10,4.48,10,10.001  c0,5.522-4.479,10-10,10C46.176,61.665,41.7,57.188,41.7,51.665z M61.592,65.289c-0.821,0.596-1.97,0.414-2.566-0.406  c-0.596-0.82-0.413-1.971,0.406-2.566c0.821-0.597,1.971-0.412,2.565,0.408C62.593,63.544,62.411,64.692,61.592,65.289z   M67.712,46.465c0.312,0.965-0.215,2.001-1.18,2.315c-0.964,0.313-2.002-0.216-2.314-1.18c-0.314-0.966,0.217-2.001,1.18-2.313  C66.361,44.974,67.397,45.501,67.712,46.465z"/><path d="M45.784,19.465l-1.36-7.457c-0.122-0.662-0.511-1.248-1.079-1.615C42.946,10.133,42.483,10,42.017,10  c-0.196,0-0.393,0.023-0.586,0.07c-15.387,3.791-27.711,16.201-31.398,31.615c-0.155,0.655-0.036,1.35,0.338,1.914  c0.371,0.562,0.956,0.95,1.623,1.065l7.465,1.308c0.144,0.025,0.286,0.037,0.426,0.037c1.1,0,2.091-0.746,2.37-1.848  c2.722-10.705,11.052-19.094,21.74-21.89C45.234,21.947,46.014,20.725,45.784,19.465z M17.384,41.057  c-1.015,0-1.836-0.821-1.836-1.836c0-1.014,0.822-1.837,1.836-1.837c1.013,0,1.835,0.823,1.835,1.837  C19.219,40.235,18.397,41.057,17.384,41.057z M39.171,19.23c-1.015,0-1.836-0.821-1.836-1.836c0-1.014,0.822-1.836,1.836-1.836  c1.014,0,1.837,0.822,1.837,1.836C41.008,18.409,40.185,19.23,39.171,19.23z"/><path d="M51.7,13.331c-1.676,0-3.323,0.119-4.942,0.327l0.993,5.447c0.416,2.274-1.013,4.516-3.251,5.102  c-9.984,2.611-17.765,10.447-20.308,20.447c-0.501,1.976-2.272,3.355-4.309,3.355c-0.26,0-6.223-1.021-6.223-1.021  c-0.187,1.533-0.294,3.092-0.294,4.677C13.367,72.836,30.527,90,51.7,90c21.17,0,38.334-17.164,38.334-38.335  S72.87,13.331,51.7,13.331z M51.696,74.665c-12.682,0-22.999-10.317-22.999-23s10.318-23,23-23c12.683,0.001,23,10.319,23,23  C74.697,64.348,64.379,74.665,51.696,74.665z"/><text x="0" y="115" fill="#000000" font-size="5px" font-weight="bold" font-family="'Helvetica Neue', Helvetica, Arial-Unicode, Arial, Sans-serif">Created by AA</text><text x="0" y="120" fill="#000000" font-size="5px" font-weight="bold" font-family="'Helvetica Neue', Helvetica, Arial-Unicode, Arial, Sans-serif">from the Noun Project</text></svg>