<svg xmlns="http://www.w3.org/2000/svg" version="1.1" viewBox="-5.0 -10.0 110.0 135.0">
 <path d="m62.117 46.879h-9.3047v-0.003906c-0.95312 0-1.6484-0.92188-1.3789-1.8438l5.0117-16.93-18.578 25.359h9.3203v0.003906c0.95703 0 1.6523 0.92578 1.3789 1.8477l-4.9883 16.629zm-6.2305 48.48h-11.77l-1.0117-6.6484c-0.09375-0.63672-0.59375-1.1094-1.1953-1.207-4.2461-0.79688-9.1602-2.9609-12.766-5.3008-0.51562-0.33594-1.1641-0.29688-1.6328 0.046875l-5.4258 3.9922-8.3242-8.3242 3.9922-5.4258c0.37891-0.51563 0.35938-1.1953 0.007813-1.6875-2.418-3.5469-4.3789-8.5312-5.2812-12.777-0.12891-0.60156-0.61719-1.0352-1.1914-1.1211l-6.6484-1.0117-0.003906-11.777 6.6484-1.0117c0.63672-0.09375 1.1094-0.59375 1.207-1.1953 0.78906-4.2266 2.9766-9.1797 5.3008-12.766 0.33594-0.51562 0.29688-1.1641-0.046875-1.6289l-3.9922-5.4258 8.3242-8.3242 5.4258 3.9922c0.51562 0.37891 1.1953 0.35938 1.6875 0.007813 3.5469-2.4141 8.5312-4.3789 12.777-5.2812 0.60156-0.12891 1.0352-0.61719 1.1211-1.1914l1.0117-6.6484h11.77l1.0117 6.6484c0.09375 0.63672 0.59375 1.1094 1.1953 1.207 4.2383 0.79297 9.1602 2.9648 12.766 5.3008 0.51562 0.33594 1.1641 0.29688 1.6328-0.046875l5.4258-3.9922 8.3242 8.3242-3.9922 5.4258c-0.37891 0.51562-0.35938 1.1953-0.007813 1.6875 2.418 3.5469 4.3789 8.5273 5.2812 12.777 0.12891 0.60156 0.61719 1.0352 1.1914 1.1211l6.6484 1.0117v11.77l-6.6484 1.0117c-0.63672 0.09375-1.1094 0.59375-1.207 1.1953-0.79297 4.2383-2.9648 9.1602-5.3008 12.766-0.33594 0.51563-0.29688 1.1641 0.046875 1.6328l3.9922 5.4258-8.3242 8.3242-5.4258-3.9922c-0.51562-0.37891-1.1953-0.35938-1.6875-0.007813-3.5469 2.4141-8.5312 4.3789-12.777 5.2812-0.60156 0.12891-1.0352 0.61719-1.1211 1.1914zm-21.953-26.328c1.4375 1.2188-0.41797 3.4102-1.8555 2.1914-11.816-9.9922-13.238-27.711-3.0586-39.43 4.293-4.9414 10.305-8.3516 17.102-9.3047 1.8711-0.26172 2.2695 2.5859 0.39453 2.8477-21.203 2.9492-28.988 29.828-12.582 43.695zm32.152-38.043c-1.4375-1.2188 0.41797-3.4102 1.8555-2.1914 11.781 9.9766 13.211 27.668 3.0586 39.383-4.2773 4.9375-10.27 8.3555-17.047 9.3203-1.8711 0.26562-2.2773-2.5781-0.40625-2.8477 21.184-3.0156 28.883-29.824 12.539-43.664zm-11.348 13.008h10.23c1.1406 0 1.9336 1.3281 1.0859 2.3828l-25.066 33.887c-0.95312 1.2852-2.9844 0.26172-2.5273-1.2656h-0.003907l6.7969-22.66h-10.223c-1.1406 0-1.9219-1.3242-1.1016-2.3672l25.074-34.227c0.94922-1.2969 3.0117-0.27344 2.5234 1.293z" fill-rule="evenodd"/>
<text x="0.0" y="117.5" font-size="5.0" font-weight="bold" font-family="Arbeit Regular, Helvetica, Arial-Unicode, Arial, Sans-serif" fill="#000000">Created by Icon Queen</text><text x="0.0" y="122.5" font-size="5.0" font-weight="bold" font-family="Arbeit Regular, Helvetica, Arial-Unicode, Arial, Sans-serif" fill="#000000">from Noun Project</text></svg>