<svg xmlns="http://www.w3.org/2000/svg" version="1.1" viewBox="-5.0 -10.0 110.0 135.0">
 <g>
  <path d="m61.719 59.078h-6.0938c-0.35938-1.1328-0.81641-2.2383-1.3594-3.2969l4.3125-4.3125c0.60547-0.60938 0.60547-1.5938 0-2.2031l-7.0156-7.0781c-0.60938-0.60547-1.5938-0.60547-2.2031 0l-4.3594 4.3281c-1.0586-0.54297-2.1641-1-3.2969-1.3594v-6.0938c0-0.41406-0.16406-0.8125-0.45703-1.1055-0.29297-0.29297-0.69141-0.45703-1.1055-0.45703h-9.9688c-0.86328 0-1.5625 0.69922-1.5625 1.5625v6.0938c-1.1328 0.35938-2.2383 0.81641-3.2969 1.3594l-4.3125-4.3281c-0.29297-0.30469-0.69922-0.47656-1.125-0.47656s-0.83203 0.17187-1.125 0.47656l-7.0156 7.0781c-0.60547 0.60938-0.60547 1.5938 0 2.2031l4.3125 4.3125c-0.54297 1.0586-1 2.1641-1.3594 3.2969h-6.0938c-0.86328 0-1.5625 0.69922-1.5625 1.5625v9.9688c0 0.41406 0.16406 0.8125 0.45703 1.1055 0.29297 0.29297 0.69141 0.45703 1.1055 0.45703h6.0938c0.35938 1.1328 0.81641 2.2383 1.3594 3.2969l-4.3125 4.3125c-0.60547 0.60938-0.60547 1.5938 0 2.2031l7.0156 7.0781c0.60938 0.60547 1.5938 0.60547 2.2031 0l4.3125-4.3125c1.0586 0.54297 2.1641 1 3.2969 1.3594v6.0781c0 0.41406 0.16406 0.8125 0.45703 1.1055s0.69141 0.45703 1.1055 0.45703h9.9688c0.41406 0 0.8125-0.16406 1.1055-0.45703s0.45703-0.69141 0.45703-1.1055v-6.0938c1.1328-0.35938 2.2383-0.81641 3.2969-1.3594l4.3594 4.3281c0.29297 0.30469 0.69922 0.47656 1.125 0.47656s0.83203-0.17187 1.125-0.47656l7.0625-7.0625c0.60547-0.60938 0.60547-1.5938 0-2.2031l-4.3594-4.3281c0.54297-1.0586 1-2.1641 1.3594-3.2969h6.0938c0.41406 0 0.8125-0.16406 1.1055-0.45703 0.29297-0.29297 0.45703-0.69141 0.45703-1.1055v-9.9688c0-0.86328-0.69922-1.5625-1.5625-1.5625zm-26.562 21.391c-3.9375 0-7.7109-1.5625-10.496-4.3477s-4.3477-6.5586-4.3477-10.496 1.5625-7.7109 4.3477-10.496 6.5586-4.3477 10.496-4.3477 7.7109 1.5625 10.496 4.3477 4.3477 6.5586 4.3477 10.496c-0.003906 3.9336-1.5703 7.707-4.3516 10.492-2.7852 2.7812-6.5586 4.3477-10.492 4.3516z"/>
  <path d="m46.875 65.625c0 6.4727-5.2461 11.719-11.719 11.719s-11.719-5.2461-11.719-11.719 5.2461-11.719 11.719-11.719 11.719 5.2461 11.719 11.719"/>
  <path d="m91.406 22.75h-4.3906c-0.24219-0.71094-0.52734-1.4062-0.85938-2.0781l3.125-3.125c0.60547-0.60938 0.60547-1.5938 0-2.2031l-5.4219-5.3906c-0.60938-0.60547-1.5938-0.60547-2.2031 0l-3.125 3.125c-0.67188-0.33203-1.3672-0.61719-2.0781-0.85938v-4.4062c0-0.41406-0.16406-0.8125-0.45703-1.1055-0.29297-0.29297-0.69141-0.45703-1.1055-0.45703h-7.6094c-0.86328 0-1.5625 0.69922-1.5625 1.5625v4.3906c-0.71094 0.24219-1.4062 0.52734-2.0781 0.85938l-3.125-3.125c-0.60938-0.60547-1.5938-0.60547-2.2031 0l-5.3906 5.4219c-0.60547 0.60938-0.60547 1.5938 0 2.2031l3.125 3.125c-0.33203 0.67188-0.61719 1.3672-0.85938 2.0781h-4.4062c-0.86328 0-1.5625 0.69922-1.5625 1.5625v7.625c0 0.41406 0.16406 0.8125 0.45703 1.1055 0.29297 0.29297 0.69141 0.45703 1.1055 0.45703h4.3906c0.24219 0.71094 0.52734 1.4062 0.85938 2.0781l-3.125 3.125c-0.60547 0.60938-0.60547 1.5938 0 2.2031l5.4062 5.4062c0.60938 0.60547 1.5938 0.60547 2.2031 0l3.125-3.125c0.67188 0.33203 1.3672 0.61719 2.0781 0.85938v4.375c0 0.41406 0.16406 0.8125 0.45703 1.1055s0.69141 0.45703 1.1055 0.45703h7.625c0.41406 0 0.8125-0.16406 1.1055-0.45703s0.45703-0.69141 0.45703-1.1055v-4.3906c0.71094-0.24219 1.4062-0.52734 2.0781-0.85938l3.125 3.125c0.60938 0.60547 1.5938 0.60547 2.2031 0l5.4062-5.4062c0.60547-0.60938 0.60547-1.5938 0-2.2031l-3.125-3.125c0.33203-0.67188 0.61719-1.3672 0.85938-2.0781h4.3906c0.41406 0 0.8125-0.16406 1.1055-0.45703s0.45703-0.69141 0.45703-1.1055v-7.625c0-0.41406-0.16406-0.8125-0.45703-1.1055s-0.69141-0.45703-1.1055-0.45703zm-20.312 17.094c-4.7383 0-9.0117-2.8555-10.828-7.2344-1.8125-4.3789-0.80859-9.418 2.543-12.77 3.3516-3.3516 8.3906-4.3555 12.77-2.543 4.3789 1.8164 7.2344 6.0898 7.2344 10.828 0 3.1094-1.2344 6.0898-3.4336 8.2852-2.1953 2.1992-5.1758 3.4336-8.2852 3.4336z"/>
  <path d="m79.688 28.125c0 4.7461-3.8477 8.5938-8.5938 8.5938s-8.5938-3.8477-8.5938-8.5938 3.8477-8.5938 8.5938-8.5938 8.5938 3.8477 8.5938 8.5938"/>
 </g>
<text x="0.0" y="117.5" font-size="5.0" font-weight="bold" font-family="Arbeit Regular, Helvetica, Arial-Unicode, Arial, Sans-serif" fill="#000000">Created by Mahfudin yusuf</text><text x="0.0" y="122.5" font-size="5.0" font-weight="bold" font-family="Arbeit Regular, Helvetica, Arial-Unicode, Arial, Sans-serif" fill="#000000">from Noun Project</text></svg>