<svg xmlns="http://www.w3.org/2000/svg" version="1.1" viewBox="-5.0 -10.0 110.0 135.0">
 <path d="m50 7.7891c-23.277 0-42.211 18.938-42.211 42.211 0 23.277 18.934 42.211 42.211 42.211s42.211-18.938 42.211-42.211c0-23.277-18.938-42.211-42.211-42.211zm0 86.352c-11.793 0-22.875-4.5898-31.211-12.926-8.3398-8.3398-12.926-19.422-12.926-31.211 0-11.793 4.5898-22.875 12.926-31.211 8.3359-8.3359 19.422-12.93 31.211-12.93s22.875 4.5898 31.211 12.93c8.3398 8.3398 12.93 19.422 12.93 31.211 0 11.789-4.5898 22.875-12.93 31.211-8.3359 8.3359-19.422 12.93-31.211 12.926z" fill-rule="evenodd"/>
 <path d="m50 22.469c-15.184 0-27.535 12.348-27.535 27.531 0 15.18 12.352 27.531 27.535 27.531 15.18 0 27.531-12.352 27.531-27.531 0-15.184-12.352-27.531-27.531-27.531zm0 56.992c-16.246 0-29.461-13.215-29.461-29.461s13.219-29.461 29.461-29.461 29.461 13.215 29.461 29.461-13.219 29.461-29.461 29.461z" fill-rule="evenodd"/>
 <path d="m50 27.285c-12.523 0-22.715 10.188-22.715 22.715 0 12.523 10.191 22.715 22.715 22.715s22.715-10.188 22.715-22.715c0-12.523-10.188-22.715-22.715-22.715zm0 47.355c-13.59 0-24.645-11.055-24.645-24.641 0-13.59 11.055-24.641 24.645-24.641 13.586 0 24.641 11.051 24.641 24.641 0 13.586-11.055 24.641-24.641 24.641z" fill-rule="evenodd"/>
 <path d="m50 44.387c-3.0977 0-5.6172 2.5195-5.6172 5.6172s2.5195 5.6172 5.6172 5.6172 5.6133-2.5195 5.6133-5.6172-2.5195-5.6172-5.6133-5.6172zm0 13.16c-4.1602 0-7.543-3.3867-7.543-7.543 0-4.1602 3.3828-7.543 7.543-7.543s7.543 3.3828 7.543 7.543c0 4.1562-3.3828 7.543-7.5391 7.543z" fill-rule="evenodd"/>
 <path d="m50 48.324c-0.92188 0-1.6758 0.75-1.6758 1.6758 0 0.92188 0.75 1.6719 1.6758 1.6719 0.92188 0 1.6719-0.75 1.6719-1.6719s-0.75-1.6758-1.6719-1.6758zm0 5.2734c-1.9844 0-3.6016-1.6133-3.6016-3.6016 0-1.9844 1.6172-3.6016 3.6016-3.6016s3.6016 1.6133 3.6016 3.6016c0 1.9844-1.6172 3.6016-3.6016 3.6016z" fill-rule="evenodd"/>
 <path d="m43.168 33.848zm6.832-0.41797c-2.2383 0-4.4102 0.44141-6.457 1.3047-0.34766 0.14844-0.53516 0.37109-0.57422 0.68359-0.046875 0.375 0.13281 0.79688 0.43359 1.0234 0.25391 0.19141 0.54297 0.21094 0.89453 0.066406 1.8047-0.76562 3.7227-1.1523 5.7031-1.1523 1.9766 0 3.8984 0.38672 5.7031 1.1523 0.82031 0.34766 1.1758-0.375 1.2383-0.52344 0.10547-0.24609 0.125-0.51172 0.050782-0.72656-0.078126-0.23437-0.25391-0.40625-0.53906-0.52734-2.0469-0.86719-4.2148-1.3047-6.4531-1.3047zm-6.1328 5.1016c-0.58203 0-1.1445-0.18359-1.625-0.54688-0.85156-0.64062-1.3164-1.7422-1.1836-2.8008 0.12109-0.99609 0.75391-1.8086 1.7344-2.2227 2.2852-0.96875 4.707-1.457 7.207-1.457 2.4961 0 4.9219 0.48828 7.207 1.457 0.79297 0.33594 1.3672 0.9375 1.6172 1.6953 0.21875 0.66406 0.17969 1.4023-0.10938 2.0859-0.28516 0.67969-0.79297 1.2227-1.4219 1.5273-0.71875 0.34766-1.5508 0.35547-2.3438 0.019531-1.5664-0.66406-3.2344-1-4.9492-1-1.7188 0-3.3867 0.33594-4.9531 1-0.39062 0.16406-0.78906 0.24609-1.1797 0.24609z" fill-rule="evenodd"/>
 <path d="m64.461 42.965c-0.33984 0-0.69922 0.17188-0.90234 0.44141-0.19141 0.25391-0.21094 0.54297-0.066406 0.89062 0.76562 1.8047 1.1523 3.7227 1.1523 5.7031s-0.38672 3.8984-1.1523 5.7031c-0.34766 0.82031 0.375 1.1758 0.52344 1.2383s0.90234 0.33203 1.2539-0.48828c0.86719-2.043 1.3047-4.2148 1.3047-6.4531s-0.44141-4.4102-1.3047-6.4531c-0.14844-0.34766-0.37109-0.53516-0.6875-0.57422-0.039062-0.007812-0.082031-0.007812-0.12109-0.007812zm0.015624 16c-0.41406 0-0.82812-0.085938-1.2109-0.24609-1.3242-0.55859-2.2773-2.0352-1.5469-3.7656 0.66406-1.5664 1-3.2344 1-4.9531s-0.33594-3.3867-1-4.9531c-0.41406-0.98047-0.30469-2 0.30469-2.8047 0.64453-0.85156 1.7422-1.3164 2.7969-1.1836 1 0.125 1.8086 0.75781 2.2227 1.7344 0.96484 2.2852 1.457 4.7109 1.457 7.207s-0.48828 4.9219-1.457 7.207c-0.52344 1.2305-1.543 1.7578-2.5664 1.7578z" fill-rule="evenodd"/>
 <path d="m43.879 63.398c-0.52734 0-0.76953 0.49609-0.82031 0.61719-0.0625 0.14844-0.33594 0.90625 0.48438 1.2539 2.0469 0.86719 4.2188 1.3047 6.457 1.3047s4.4102-0.44141 6.4531-1.3047c0.34766-0.14844 0.53516-0.37109 0.57422-0.6875 0.046875-0.375-0.13281-0.79688-0.43359-1.0234-0.25391-0.19141-0.54297-0.21094-0.89062-0.0625-1.8086 0.76562-3.7266 1.1523-5.7031 1.1523-1.9805 0-3.8984-0.38672-5.7031-1.1523-0.15625-0.066406-0.29688-0.09375-0.41797-0.09375zm6.125 5.1016c-2.5 0-4.9219-0.48828-7.207-1.457-1.7305-0.73438-2.0703-2.457-1.5117-3.7773 0.28906-0.67969 0.79297-1.2227 1.4219-1.5273 0.71875-0.34766 1.5508-0.35156 2.3438-0.019531 1.5664 0.66406 3.2344 1 4.9531 1s3.3867-0.33594 4.9492-1c0.98047-0.41406 2-0.30469 2.8047 0.30078 0.85156 0.64062 1.3164 1.7422 1.1875 2.7969-0.125 1-0.75781 1.8086-1.7383 2.2227-2.2812 0.96875-4.707 1.457-7.207 1.457z" fill-rule="evenodd"/>
 <path d="m35.539 42.965c-0.097656 0-0.19141 0.015625-0.28125 0.042968-0.23437 0.078126-0.40234 0.25391-0.52344 0.53906-0.86719 2.043-1.3047 4.2148-1.3047 6.4531s0.4375 4.4102 1.3047 6.4531c0.34766 0.82031 1.1055 0.55078 1.2539 0.48828 0.14844-0.0625 0.87109-0.41797 0.52344-1.2383-0.76562-1.8086-1.1523-3.7227-1.1523-5.7031s0.38672-3.8984 1.1523-5.7031c0.34766-0.82031-0.375-1.1758-0.52344-1.2383-0.14844-0.0625-0.30078-0.09375-0.44922-0.09375zm-0.011718 16c-1.0234 0-2.0469-0.52734-2.5664-1.7578-0.96875-2.2812-1.457-4.707-1.457-7.207 0-2.4961 0.48828-4.9219 1.457-7.207 0.73437-1.7305 2.457-2.0703 3.7773-1.5117 1.3242 0.55859 2.2773 2.0352 1.5469 3.7656-0.66406 1.5664-1 3.2305-1 4.9531 0 1.7188 0.33594 3.3867 1 4.9531 0.73438 1.7305-0.22266 3.2031-1.5469 3.7656-0.38281 0.16016-0.79688 0.24609-1.2109 0.24609z" fill-rule="evenodd"/>
 <path d="m40.238 24.184c-0.16797 0-0.33594-0.042969-0.49219-0.13281-0.45703-0.27344-0.60938-0.86328-0.33594-1.3203l9.7617-16.398c0.27344-0.45703 0.86328-0.60547 1.3203-0.33594 0.45703 0.27344 0.60937 0.86719 0.33594 1.3203l-9.7617 16.398c-0.17969 0.30469-0.50391 0.46875-0.82812 0.46875z" fill-rule="evenodd"/>
 <path d="m54.93 22.895c-0.33984 0-0.66797-0.17969-0.84375-0.49219-0.25781-0.46484-0.09375-1.0508 0.37109-1.3125l16.672-9.3281c0.46484-0.25781 1.0508-0.09375 1.3125 0.37109 0.25781 0.46484 0.09375 1.0508-0.37109 1.3125l-16.672 9.3281c-0.15234 0.082031-0.3125 0.12109-0.46875 0.12109z" fill-rule="evenodd"/>
 <path d="m87.402 29.375h-0.015625l-19.102-0.25781c-0.53125-0.007813-0.95703-0.44531-0.94922-0.97656 0.007812-0.52734 0.4375-0.95312 0.96484-0.95312h0.011719l19.102 0.25781c0.53125 0.007813 0.95703 0.44531 0.95313 0.97656-0.007813 0.52734-0.4375 0.94922-0.96484 0.94922z" fill-rule="evenodd"/>
 <path d="m93.176 50.965c-0.16797 0-0.33594-0.042969-0.49219-0.13672l-16.398-9.7617c-0.45703-0.27344-0.60547-0.86328-0.33203-1.3203 0.26953-0.45703 0.86328-0.60938 1.3203-0.33594l16.395 9.7617c0.45703 0.27344 0.60938 0.86719 0.33594 1.3203-0.17969 0.30469-0.5 0.47266-0.82812 0.47266z" fill-rule="evenodd"/>
 <path d="m87.398 72.559c-0.33594 0-0.66406-0.17578-0.83984-0.49219l-9.3242-16.664c-0.25781-0.46484-0.09375-1.0508 0.37109-1.3125 0.46484-0.25781 1.0508-0.09375 1.3125 0.37109l9.3242 16.668c0.26172 0.46484 0.09375 1.0508-0.37109 1.3125-0.14844 0.082032-0.3125 0.12109-0.46875 0.12109z" fill-rule="evenodd"/>
 <path d="m71.586 88.473h-0.011719c-0.53125-0.007812-0.95703-0.44531-0.95312-0.97656l0.25781-19.211c0.007813-0.53125 0.44141-0.94922 0.97656-0.95312 0.53125 0.007813 0.95703 0.44531 0.94922 0.97656l-0.25781 19.211c-0.007813 0.52734-0.4375 0.95312-0.96484 0.95312z" fill-rule="evenodd"/>
 <path d="m50 94.141c-0.16797 0-0.33594-0.042969-0.49219-0.13672-0.45703-0.26953-0.60937-0.86328-0.33594-1.3203l9.7656-16.395c0.26953-0.45703 0.86328-0.60937 1.3203-0.33594 0.45703 0.26953 0.60547 0.86328 0.33594 1.3203l-9.7617 16.398c-0.17969 0.30078-0.5 0.46875-0.82812 0.46875z" fill-rule="evenodd"/>
 <path d="m28.406 88.359c-0.33594 0-0.66797-0.17969-0.83984-0.49219-0.26172-0.46484-0.09375-1.0508 0.37109-1.3125l16.664-9.3242c0.46484-0.25781 1.0508-0.09375 1.3125 0.37109 0.25781 0.46484 0.09375 1.0508-0.37109 1.3125l-16.664 9.3242c-0.14844 0.082031-0.3125 0.12109-0.46875 0.12109z" fill-rule="evenodd"/>
 <path d="m56.617 13.699c-0.53125 0-0.96484-0.42969-0.96484-0.96484 0-0.53125 0.42969-0.96875 0.96484-0.96875 0.53516 0 0.96484 0.42578 0.96484 0.96094v0.007813c0 0.53125-0.42969 0.96484-0.96484 0.96484z" fill-rule="evenodd"/>
 <path d="m52.059 18.137c-0.53125 0-0.96484-0.42969-0.96484-0.96484 0-0.53125 0.43359-0.96875 0.96484-0.96875 0.53516 0 0.96484 0.42578 0.96484 0.96094v0.007813c0 0.53125-0.42969 0.96484-0.96484 0.96484z" fill-rule="evenodd"/>
 <path d="m74.363 22c-0.18359 0-0.37109-0.054688-0.53516-0.16406-0.42969-0.28516-0.55469-0.86328-0.28906-1.3008 0.003907-0.003906 0.003907-0.011718 0.007813-0.015625 0.28125-0.45312 0.87109-0.59375 1.3242-0.31641 0.44922 0.27344 0.59375 0.85938 0.32422 1.3125-0.011718 0.019531-0.023437 0.035156-0.03125 0.050781-0.1875 0.27734-0.49219 0.42969-0.80469 0.42969z" fill-rule="evenodd"/>
 <path d="m68.195 23.566c-0.15625 0-0.3125-0.035156-0.45703-0.11328-0.46875-0.25391-0.64062-0.83594-0.39062-1.3047 0.011719-0.015626 0.023438-0.035157 0.03125-0.050782 0.26953-0.46094 0.85547-0.60938 1.3125-0.33984 0.46094 0.26953 0.60938 0.86719 0.34375 1.3281 0 0-0.003906 0.007812-0.007812 0.007812-0.17969 0.30469-0.5 0.47656-0.83203 0.47656z" fill-rule="evenodd"/>
 <path d="m85.582 38.059c-0.33203 0-0.66016-0.17578-0.83594-0.48438-0.26172-0.45703-0.10938-1.043 0.34766-1.3086 0.003906-0.003906 0.015625-0.007813 0.019531-0.011719 0.46094-0.25781 1.0469-0.097656 1.3086 0.36328 0.26172 0.46094 0.10938 1.043-0.34766 1.3086-0.003907 0.003907-0.011719 0.007813-0.019531 0.011719-0.14844 0.085938-0.3125 0.125-0.47266 0.125z" fill-rule="evenodd"/>
 <path d="m79.457 36.332c-0.32422 0-0.63672-0.16406-0.82031-0.45703-0.27734-0.45312-0.13672-1.0469 0.31641-1.3242 0.015625-0.011719 0.039063-0.023437 0.054687-0.03125 0.46875-0.25391 1.0547-0.078125 1.3047 0.39062 0.25 0.46094 0.082031 1.0352-0.37109 1.293-0.15234 0.089844-0.32031 0.12891-0.48438 0.12891z" fill-rule="evenodd"/>
 <path d="m87.273 57.582h-0.007813c-0.53125 0-0.96484-0.43359-0.96484-0.96484s0.43359-0.96484 0.96484-0.96484 0.96875 0.43359 0.96875 0.96484-0.42578 0.96484-0.96094 0.96484z" fill-rule="evenodd"/>
 <path d="m82.836 53.023h-0.007813c-0.53516 0-0.96484-0.42969-0.96484-0.96484 0-0.53125 0.42969-0.96484 0.96484-0.96484 0.53125 0 0.96875 0.43359 0.96875 0.96484s-0.42578 0.96484-0.96094 0.96484z" fill-rule="evenodd"/>
 <path d="m78.973 75.332c-0.15625 0-0.3125-0.039062-0.45703-0.11719-0.003906-0.003906-0.011719-0.007813-0.019531-0.007813-0.46094-0.25781-0.62891-0.84375-0.375-1.3086 0.25391-0.46484 0.83203-0.63672 1.3008-0.38672 0.003906 0 0.011719 0.007812 0.015625 0.011719 0.46094 0.25781 0.62891 0.83984 0.37891 1.3047-0.17578 0.32031-0.50781 0.5-0.84375 0.5z" fill-rule="evenodd"/>
 <path d="m77.402 69.164c-0.16016 0-0.32422-0.039062-0.47266-0.125-0.003907-0.003906-0.011719-0.007812-0.015626-0.007812-0.46094-0.26953-0.61328-0.85938-0.34766-1.3203 0.26953-0.46094 0.85938-0.61328 1.3203-0.34375 0.46094 0.26562 0.61719 0.85937 0.35156 1.3203-0.17969 0.30859-0.5 0.48047-0.83203 0.48047z" fill-rule="evenodd"/>
 <path d="m62.906 86.555c-0.33203 0-0.65625-0.17188-0.83203-0.47656 0-0.003906-0.003907-0.007813-0.007813-0.007813-0.26562-0.46094-0.11328-1.0508 0.34766-1.3164 0.46094-0.26953 1.0508-0.11328 1.3164 0.34375 0.011719 0.015625 0.011719 0.019532 0.023437 0.035156 0.25 0.46875 0.078125 1.0547-0.39453 1.3086-0.14453 0.078125-0.30078 0.11328-0.45703 0.11328z" fill-rule="evenodd"/>
 <path d="m64.637 80.43c-0.3125 0-0.61719-0.15234-0.80469-0.42969-0.011719-0.019531-0.027343-0.042969-0.039062-0.0625-0.26172-0.46094-0.10547-1.0469 0.35156-1.3125 0.46094-0.26562 1.043-0.11328 1.3125 0.34375 0.26562 0.4375 0.14062 1.0117-0.28906 1.3008-0.16406 0.10938-0.35156 0.16406-0.53516 0.16406z" fill-rule="evenodd"/>
 <path d="m43.383 88.234c-0.53125 0-0.96484-0.42578-0.96484-0.96094v-0.007813c0-0.53125 0.42969-0.96484 0.96484-0.96484 0.53125 0 0.96484 0.42969 0.96484 0.96484 0 0.53125-0.43359 0.96875-0.96484 0.96875z" fill-rule="evenodd"/>
 <path d="m47.941 83.793c-0.53125 0-0.96484-0.42578-0.96484-0.96094v-0.007812c0-0.53125 0.42969-0.96484 0.96484-0.96484 0.53125 0 0.96484 0.43359 0.96484 0.96484s-0.43359 0.96875-0.96484 0.96875z" fill-rule="evenodd"/>
 <path d="m25.633 79.938c-0.18359 0-0.37109-0.050781-0.53516-0.16406-0.44141-0.29688-0.5625-0.89453-0.26562-1.3359l0.80859 0.52734 0.83203 0.48438c-0.007812 0.015625-0.023437 0.039062-0.035156 0.054687-0.18359 0.27734-0.49219 0.42969-0.80078 0.42969z" fill-rule="evenodd"/>
 <path d="m31.801 78.371c-0.17188 0-0.34766-0.046875-0.50391-0.14062-0.44922-0.27344-0.59375-0.85547-0.32812-1.3086 0.25781-0.45312 0.83203-0.61719 1.293-0.37109 0.46875 0.25 0.64453 0.83594 0.39062 1.3047-0.007813 0.015625-0.023438 0.039062-0.03125 0.054687-0.18359 0.29688-0.49609 0.45703-0.82031 0.45703z" fill-rule="evenodd"/>
 <path d="m14.414 63.867c-0.33594 0-0.66016-0.17188-0.83594-0.48438-0.26172-0.46094-0.10938-1.043 0.34766-1.3086 0.003907-0.003907 0.011719-0.007813 0.019531-0.011719 0.46094-0.25781 1.0469-0.097656 1.3086 0.35938 0.26172 0.46094 0.10938 1.043-0.34766 1.3125-0.003906 0-0.015625 0.007813-0.019531 0.011719-0.14844 0.085937-0.3125 0.12109-0.47266 0.12109z" fill-rule="evenodd"/>
 <path d="m20.535 65.598c-0.33203 0-0.65625-0.17188-0.83203-0.47656-0.26562-0.46094-0.11328-1.0508 0.34766-1.3164 0.011719-0.007813 0.027344-0.015626 0.035157-0.019532 0.46875-0.25391 1.0508-0.078125 1.3047 0.39062 0.25 0.46484 0.082031 1.043-0.37891 1.2969-0.14844 0.085938-0.31641 0.125-0.47656 0.125z" fill-rule="evenodd"/>
 <path d="m12.734 44.348c-0.53125 0-0.96875-0.42969-0.96875-0.96484 0-0.53125 0.42578-0.96484 0.96094-0.96484h0.007813c0.53516 0 0.96484 0.43359 0.96484 0.96484s-0.42969 0.96484-0.96484 0.96484z" fill-rule="evenodd"/>
 <path d="m17.176 48.902c-0.53516 0-0.96875-0.42969-0.96875-0.96484 0-0.53125 0.42578-0.96484 0.96094-0.96484h0.011719c0.53125 0 0.96484 0.43359 0.96484 0.96484s-0.42969 0.96484-0.96484 0.96484z" fill-rule="evenodd"/>
 <path d="m21.035 26.602c-0.16406 0-0.33203-0.042968-0.48438-0.12891-0.46094-0.26953-0.61719-0.86328-0.34766-1.3203 0.26562-0.45703 0.84766-0.61328 1.3047-0.35156 0.007813 0.003907 0.011719 0.007813 0.015626 0.007813 0.46094 0.26953 0.61328 0.85938 0.34766 1.3203-0.17969 0.30859-0.5 0.47656-0.83203 0.47656z" fill-rule="evenodd"/>
 <path d="m22.602 32.77c-0.16406 0-0.32812-0.042969-0.48047-0.12891-0.45703-0.25781-0.625-0.83203-0.375-1.2969 0.25-0.46875 0.83594-0.64453 1.3047-0.39062 0.011719 0.003906 0.027344 0.015625 0.035157 0.019531 0.46094 0.26562 0.61328 0.85547 0.34766 1.3164-0.17969 0.30859-0.5 0.48047-0.83203 0.48047z" fill-rule="evenodd"/>
 <path d="m37.098 15.383c-0.33203 0-0.65625-0.17187-0.83203-0.48047-0.27734-0.45312-0.13281-1.0391 0.32031-1.3203 0.45312-0.27734 1.0508-0.12891 1.3281 0.32031 0.003907 0.007812 0.011719 0.019531 0.015626 0.027344 0.26953 0.46094 0.11328 1.0508-0.34766 1.3164-0.15234 0.089844-0.32031 0.13281-0.48438 0.13281z" fill-rule="evenodd"/>
 <path d="m35.371 21.504c-0.33203 0-0.65234-0.17188-0.83203-0.47656-0.003906-0.007813-0.015624-0.027344-0.019531-0.035156-0.25-0.46875-0.078125-1.0508 0.39062-1.3047 0.46484-0.25 1.043-0.082031 1.3008 0.37891 0.26172 0.46094 0.10547 1.043-0.35156 1.3125-0.15234 0.089844-0.32031 0.12891-0.48438 0.12891z" fill-rule="evenodd"/>
 <path d="m31.699 72.809h-0.011719l-19.102-0.25781c-0.53125-0.007812-0.95703-0.44531-0.95313-0.97656 0.007813-0.52734 0.4375-0.95312 0.96484-0.95312h0.015625l19.102 0.25781c0.53125 0.007813 0.95703 0.44531 0.94922 0.97656-0.007812 0.52734-0.4375 0.94922-0.96484 0.94922z" fill-rule="evenodd"/>
 <path d="m23.219 60.727c-0.16797 0-0.33594-0.042968-0.49219-0.13672l-16.398-9.7617c-0.45703-0.26953-0.60938-0.86328-0.33594-1.3203 0.27344-0.45703 0.86328-0.60547 1.3203-0.33594l16.398 9.7617c0.45703 0.27344 0.60547 0.86328 0.33594 1.3203-0.17969 0.30469-0.5 0.47266-0.82812 0.47266z" fill-rule="evenodd"/>
 <path d="m21.93 46.035c-0.33594 0-0.66406-0.17969-0.83984-0.49219l-9.3242-16.664c-0.26172-0.46484-0.09375-1.0508 0.37109-1.3125 0.46484-0.26172 1.0508-0.09375 1.3125 0.37109l9.3242 16.664c0.25781 0.46484 0.09375 1.0508-0.37109 1.3125-0.14844 0.082032-0.30859 0.12109-0.46875 0.12109z" fill-rule="evenodd"/>
 <path d="m28.156 32.664h-0.011719c-0.53516-0.007812-0.95703-0.44531-0.95312-0.97656l0.25781-19.211c0.007812-0.52734 0.4375-0.95312 0.96484-0.95312h0.011719c0.53125 0.007812 0.95703 0.44531 0.95312 0.97656l-0.25781 19.211c-0.007813 0.52734-0.4375 0.95312-0.96484 0.95312z" fill-rule="evenodd"/>
<text x="0.0" y="117.5" font-size="5.0" font-weight="bold" font-family="Arbeit Regular, Helvetica, Arial-Unicode, Arial, Sans-serif" fill="#000000">Created by Ehtisham Abid</text><text x="0.0" y="122.5" font-size="5.0" font-weight="bold" font-family="Arbeit Regular, Helvetica, Arial-Unicode, Arial, Sans-serif" fill="#000000">from Noun Project</text></svg>