<svg xmlns="http://www.w3.org/2000/svg" version="1.1" viewBox="-5.0 -10.0 110.0 135.0">
 <path d="m56.938 54.805-4.2695 4.2695-7.8789-14.992zm11.805-49.648 26.102 26.102c0.91016 0.91016 0.91016 2.3984 0 3.3086s-2.3984 0.91016-3.3086 0l-26.102-26.098c-0.91016-0.91016-0.91016-2.3984 0-3.3086 0.91016-0.91406 2.3984-0.91406 3.3086-0.003906zm11.082 20.387-9.8633-9.8633 12.52 23.828c0.49609 0.72656 0.23828 0.82031-0.34375 0.42188l-24.789-22.012c-0.90234-0.61719-1.957-0.99219-2.9922-0.99219-1.082 0-2.125 0.37109-2.9844 1.2305s-1.2305 1.9023-1.2305 2.9844c0 1.0391 0.48438 2.0273 0.99219 2.9922l16.395 31.199c0.34766 0.66406 0.23438 0.97266-0.40625 0.40625l-25.277-22.316c-0.90234-0.61719-1.957-0.99219-2.9922-0.99219-1.082 0-2.125 0.37109-2.9844 1.2305-0.85938 0.85938-1.2305 1.9023-1.2305 2.9844 0 1.0391 0.48438 2.0273 0.99219 2.9922l6.0938 11.594 9.8633 9.8633-12.52-23.832c-0.46484-0.67578-0.20703-0.94922 0.40625-0.40625l25.277 22.316c0.90234 0.61719 1.9531 0.99219 2.9922 0.99219 1.082 0 2.125-0.37109 2.9844-1.2305 0.85938-0.85938 1.2305-1.9023 1.2305-2.9844 0-1.0391-0.48438-2.0273-0.99219-2.9922l-16.395-31.199c-0.42187-0.61719-0.29687-0.89062 0.40625-0.40625l25 22.156c0.78125 0.55078 1.8398 0.89844 2.9062 0.84375 0.98438-0.050781 1.9766-0.41797 2.7969-1.2383 0.85937-0.85938 1.2305-1.9023 1.2305-2.9844 0-1.0391-0.48438-2.0273-0.99219-2.9922zm2.582-17.863c-1.5312-1.5312-4.0391-1.5312-5.5703 0l-1.4414 1.4453 15.484 15.484 1.4453-1.4453c1.5312-1.5312 1.5312-4.0391 0-5.5703zm-54.859 38.672 26.102 26.102c0.91016 0.91016 2.3984 0.91016 3.3086 0 0.91016-0.91016 0.91016-2.3984 0-3.3086l-26.102-26.102c-0.91016-0.91016-2.3984-0.91016-3.3086 0-0.91016 0.91016-0.91016 2.3984 0 3.3086zm4.0039 12.188 9.9102 9.9102c1.5195 1.5195 4 1.5312 5.5352 0.035156l-15.48-15.48c-1.4961 1.5352-1.4844 4.0156 0.035156 5.5352zm9.5898 12.066-5.3945 5.3945c-1.2227 1.2227-3.2188 1.2227-4.4414 0l-7.3047-7.3047c-1.2227-1.2227-1.2227-3.2188 0-4.4414l5.3945-5.3945c0.22656 0.36328 0.5 0.70703 0.8125 1.0195l9.9102 9.9102c0.31641 0.31641 0.66016 0.58594 1.0234 0.81641zm8.9492-32.438 11.715 10.34-6.8633-13.055c-1.0312-0.25-2.1641 0.027344-2.9688 0.82812zm-19.766 39.496-4.6367 4.6367c0.82422 3.5039-0.12891 7.3438-2.8594 10.074-4.1992 4.1992-11.004 4.1992-15.203 0s-4.1992-11.004 0-15.203c2.7344-2.7344 6.5703-3.6875 10.074-2.8594l4.6367-4.6367c0.10156 0.125 0.21094 0.24219 0.32812 0.35938l7.3047 7.3047c0.10938 0.11328 0.23047 0.22266 0.35547 0.32422zm-11.82 4.4805c-1.6328-1.6328-4.2773-1.6328-5.9102 0-1.6328 1.6328-1.6328 4.2773 0 5.9102 1.6328 1.6328 4.2773 1.6328 5.9102 0 1.6328-1.6328 1.6328-4.2773 0-5.9102zm56.73-52.352-3.4648-6.5938-2.6406 2.6406 5.3281 4.7305zm-6.3828 6.3867-5.332-4.7266-1.1211 1.1211 3.4648 6.5938z" fill-rule="evenodd"/>
<text x="0.0" y="117.5" font-size="5.0" font-weight="bold" font-family="Arbeit Regular, Helvetica, Arial-Unicode, Arial, Sans-serif" fill="#000000">Created by Prabaswara Studio</text><text x="0.0" y="122.5" font-size="5.0" font-weight="bold" font-family="Arbeit Regular, Helvetica, Arial-Unicode, Arial, Sans-serif" fill="#000000">from Noun Project</text></svg>